#!OML:ASF F:\VICON\USERDATA\INSTALL\rory3\rory3.ASF
:FULLY-SPECIFIED
:DEGREES
1042
root -1.04424 17.7492 -7.14877 1.53762 16.1622 1.44131
lowerback 2.18472 -2.49185 -4.98092
upperback 0.808353 -3.41824 1.53936
thorax -0.00527624 -1.72939 4.44093
lowerneck -23.5688 -4.18884 -11.0687
upperneck 24.2391 -3.08829 4.56092
head 12.18 -1.80835 3.03356
rclavicle 3.75206e-015 -1.07344e-014
rhumerus 22.4621 0.274667 -50.2356
rradius 69.7723
rwrist 15.7063
rhand -48.2758 4.36378
rfingers 7.12502
rthumb -20.9334 -24.5267
lclavicle 3.75206e-015 -1.07344e-014
lhumerus 29.6087 -7.85864 57.743
lradius 58.9495
lwrist -20.0851
lhand -30.1109 22.639
lfingers 7.12502
lthumb -3.42452 52.5912
rfemur -24.7296 4.6949 13.7015
rtibia 28.9159
rfoot -3.98463 -4.37154
rtoes 16.3893
lfemur 1.21646 2.44728 -23.3018
ltibia 18.7715
lfoot -16.4919 14.2133
ltoes -10.6619
1043
root -1.05921 17.7483 -7.12348 1.62091 16.1216 1.43605
lowerback 2.58728 -2.47267 -4.89029
upperback 0.62391 -3.41279 1.52683
thorax -0.427652 -1.71032 4.4036
lowerneck -23.4904 -4.14259 -10.9187
upperneck 24.2907 -3.06805 4.48557
head 12.1785 -1.79721 2.98472
rclavicle 3.08116e-015 -1.63003e-014
rhumerus 21.0473 0.638019 -50.7313
rradius 70.7019
rwrist 12.3179
rhand -47.6594 4.5363
rfingers 7.12502
rthumb -20.3411 -24.4184
lclavicle 3.08116e-015 -1.63003e-014
lhumerus 27.5858 -8.10576 58.5621
lradius 60.2231
lwrist -16.5545
lhand -28.0294 22.1251
lfingers 7.12502
lthumb -1.41429 52.1002
rfemur -24.8391 4.6296 13.8095
rtibia 29.1007
rfoot -4.23463 -4.32794
rtoes 15.0262
lfemur 1.1424 2.49961 -23.2149
ltibia 18.8813
lfoot -16.5952 14.2044
ltoes -10.9508
1044
root -1.07329 17.7478 -7.09598 1.74495 16.0519 1.35968
lowerback 2.37492 -2.42909 -4.92638
upperback 0.806512 -3.34182 1.69387
thorax -0.116133 -1.68836 4.57952
lowerneck -23.6347 -4.17188 -10.8459
upperneck 24.0584 -3.04664 4.25317
head 12.1089 -1.80526 2.88215
rclavicle 1.58531e-014 1.19271e-014
rhumerus 20.2382 0.618117 -51.0166
rradius 71.4474
rwrist 9.08821
rhand -46.8776 4.83871
rfingers 7.12502
rthumb -19.5896 -24.1943
lclavicle 1.58531e-014 1.19271e-014
lhumerus 26.0417 -8.06173 59.5776
lradius 61.2473
lwrist -13.7815
lhand -26.0663 21.7882
lfingers 7.12502
lthumb 0.481696 51.7674
rfemur -25.0093 4.58064 13.9831
rtibia 29.266
rfoot -4.57258 -4.33052
rtoes 13.7996
lfemur 1.01529 2.5709 -23.0528
ltibia 18.9837
lfoot -16.7063 14.1688
ltoes -11.1339
1045
root -1.08765 17.7479 -7.06676 1.78946 16.0522 1.18945
lowerback 2.61494 -2.43617 -4.74993
upperback 0.719606 -3.35847 1.79673
thorax -0.342267 -1.68831 4.60205
lowerneck -23.4423 -4.10799 -10.7513
upperneck 23.8319 -2.9769 4.12871
head 11.9734 -1.77852 2.8283
rclavicle -2.89729e-014 2.50469e-014
rhumerus 19.1549 0.80379 -51.4561
rradius 72.2114
rwrist 6.06137
rhand -45.6999 4.95831
rfingers 7.12502
rthumb -18.457 -24.1861
lclavicle -2.89729e-014 2.50469e-014
lhumerus 24.0113 -8.33638 60.2272
lradius 62.5068
lwrist -11.205
lhand -23.9728 22.0646
lfingers 7.12502
lthumb 2.5036 52.0296
rfemur -25.0934 4.46241 14.2653
rtibia 29.4093
rfoot -4.87707 -4.26933
rtoes 12.9651
lfemur 0.963681 2.5108 -22.7931
ltibia 19.0722
lfoot -16.8089 14.1925
ltoes -11.282
1046
root -1.0982 17.7412 -7.03646 1.89907 16.1219 1.17753
lowerback 2.69866 -2.45911 -4.68594
upperback 0.705332 -3.39071 1.86481
thorax -0.399736 -1.70263 4.64194
lowerneck -23.295 -4.08447 -10.7938
upperneck 23.572 -2.95583 4.17181
head 11.8439 -1.76262 2.85196
rclavicle 2.77553e-014 8.34896e-015
rhumerus 18.1812 0.82688 -51.9111
rradius 72.8871
rwrist 3.2545
rhand -44.8484 5.0663
rfingers 7.12502
rthumb -17.6378 -24.1537
lclavicle 2.77553e-014 8.34896e-015
lhumerus 22.055 -8.56376 60.8996
lradius 63.7776
lwrist -8.66052
lhand -21.998 22.8001
lfingers 7.12502
lthumb 4.41066 52.7341
rfemur -25.1128 4.03154 14.4553
rtibia 29.5482
rfoot -5.02014 -3.98835
rtoes 11.2793
lfemur 0.904604 2.32215 -22.7301
ltibia 19.1476
lfoot -16.8536 14.2581
ltoes -11.4925
